<svg xmlns="http://www.w3.org/2000/svg" viewBox="0 0 980 660" width="980" height="660" font-family="'Sarabun','TH Sarabun New','Tahoma','Segoe UI','Noto Sans Thai',sans-serif"><rect x="0" y="0" width="980" height="660" fill="#FFFFFF"/><defs><marker id="arw" markerWidth="10" markerHeight="10" refX="8" refY="3" orient="auto"><path d="M0,0 L8,3 L0,6 Z" fill="#475569"/></marker><marker id="arwl" markerWidth="10" markerHeight="10" refX="8" refY="3" orient="auto"><path d="M0,0 L8,3 L0,6 Z" fill="#94A3B8"/></marker><marker id="arwr" markerWidth="10" markerHeight="10" refX="8" refY="3" orient="auto"><path d="M0,0 L8,3 L0,6 Z" fill="#DC2626"/></marker><marker id="arwg" markerWidth="10" markerHeight="10" refX="8" refY="3" orient="auto"><path d="M0,0 L8,3 L0,6 Z" fill="#059669"/></marker></defs><text x="490.0" y="30" font-size="18" fill="#1E293B" text-anchor="middle" font-weight="700">รูปที่ 3.4  แผนภาพคอมโพเนนต์ (Component Diagram)</text><rect x="40" y="60" width="600" height="300" rx="14" fill="#EEF0FF" stroke="#4F46E5" stroke-width="1.6"/><text x="60" y="82" font-size="13" fill="#1E293B" text-anchor="start" font-weight="700">Hub Backend  «system»  (FastAPI :8000)</text><rect x="60" y="100" width="150" height="80" rx="8" fill="#FFFFFF" stroke="#64748B" stroke-width="1.6"/><rect x="68" y="108" width="134" height="10" rx="2" fill="#FFFFFF" stroke="#64748B" stroke-width="1"/><rect x="68" y="118" width="134" height="10" rx="2" fill="#FFFFFF" stroke="#64748B" stroke-width="1"/><text x="135.0" y="138" font-size="8.5" fill="#64748B" text-anchor="middle" font-weight="400">«component»</text><text x="135.0" y="154" font-size="10.5" fill="#1E293B" text-anchor="middle" font-weight="700">AuthController</text><text x="135.0" y="170" font-size="8.8" fill="#475569" text-anchor="middle" font-weight="400">/auth/google/*</text><rect x="230" y="100" width="150" height="80" rx="8" fill="#FFFFFF" stroke="#64748B" stroke-width="1.6"/><rect x="238" y="108" width="134" height="10" rx="2" fill="#FFFFFF" stroke="#64748B" stroke-width="1"/><rect x="238" y="118" width="134" height="10" rx="2" fill="#FFFFFF" stroke="#64748B" stroke-width="1"/><text x="305.0" y="138" font-size="8.5" fill="#64748B" text-anchor="middle" font-weight="400">«component»</text><text x="305.0" y="154" font-size="10.5" fill="#1E293B" text-anchor="middle" font-weight="700">OAuthController</text><text x="305.0" y="170" font-size="8.8" fill="#475569" text-anchor="middle" font-weight="400">/oauth/*</text><rect x="400" y="100" width="150" height="80" rx="8" fill="#FFFFFF" stroke="#64748B" stroke-width="1.6"/><rect x="408" y="108" width="134" height="10" rx="2" fill="#FFFFFF" stroke="#64748B" stroke-width="1"/><rect x="408" y="118" width="134" height="10" rx="2" fill="#FFFFFF" stroke="#64748B" stroke-width="1"/><text x="475.0" y="138" font-size="8.5" fill="#64748B" text-anchor="middle" font-weight="400">«component»</text><text x="475.0" y="154" font-size="10.5" fill="#1E293B" text-anchor="middle" font-weight="700">AdminController</text><text x="475.0" y="170" font-size="8.8" fill="#475569" text-anchor="middle" font-weight="400">/admin/*</text><rect x="60" y="200" width="150" height="80" rx="8" fill="#FFFFFF" stroke="#64748B" stroke-width="1.6"/><rect x="68" y="208" width="134" height="10" rx="2" fill="#FFFFFF" stroke="#64748B" stroke-width="1"/><rect x="68" y="218" width="134" height="10" rx="2" fill="#FFFFFF" stroke="#64748B" stroke-width="1"/><text x="135.0" y="238" font-size="8.5" fill="#64748B" text-anchor="middle" font-weight="400">«component»</text><text x="135.0" y="254" font-size="10.5" fill="#1E293B" text-anchor="middle" font-weight="700">JWTService</text><text x="135.0" y="270" font-size="8.8" fill="#475569" text-anchor="middle" font-weight="400">RS256 + JWKS</text><rect x="230" y="200" width="150" height="80" rx="8" fill="#FFFFFF" stroke="#64748B" stroke-width="1.6"/><rect x="238" y="208" width="134" height="10" rx="2" fill="#FFFFFF" stroke="#64748B" stroke-width="1"/><rect x="238" y="218" width="134" height="10" rx="2" fill="#FFFFFF" stroke="#64748B" stroke-width="1"/><text x="305.0" y="238" font-size="8.5" fill="#64748B" text-anchor="middle" font-weight="400">«component»</text><text x="305.0" y="254" font-size="10.5" fill="#1E293B" text-anchor="middle" font-weight="700">RBAEngine</text><text x="305.0" y="270" font-size="8.8" fill="#475569" text-anchor="middle" font-weight="400">4-Layer scoring</text><rect x="400" y="200" width="150" height="80" rx="8" fill="#FFFFFF" stroke="#64748B" stroke-width="1.6"/><rect x="408" y="208" width="134" height="10" rx="2" fill="#FFFFFF" stroke="#64748B" stroke-width="1"/><rect x="408" y="218" width="134" height="10" rx="2" fill="#FFFFFF" stroke="#64748B" stroke-width="1"/><text x="475.0" y="238" font-size="8.5" fill="#64748B" text-anchor="middle" font-weight="400">«component»</text><text x="475.0" y="254" font-size="10.5" fill="#1E293B" text-anchor="middle" font-weight="700">AuditService</text><text x="475.0" y="270" font-size="8.8" fill="#475569" text-anchor="middle" font-weight="400">hash-chain log</text><rect x="60" y="300" width="150" height="45" rx="8" fill="#FFFFFF" stroke="#64748B" stroke-width="1.6"/><rect x="68" y="308" width="134" height="10" rx="2" fill="#FFFFFF" stroke="#64748B" stroke-width="1"/><rect x="68" y="318" width="134" height="10" rx="2" fill="#FFFFFF" stroke="#64748B" stroke-width="1"/><text x="135.0" y="338" font-size="8.5" fill="#64748B" text-anchor="middle" font-weight="400">«component»</text><text x="135.0" y="354" font-size="10.5" fill="#1E293B" text-anchor="middle" font-weight="700">PKCEService</text><rect x="230" y="300" width="150" height="45" rx="8" fill="#FFFFFF" stroke="#64748B" stroke-width="1.6"/><rect x="238" y="308" width="134" height="10" rx="2" fill="#FFFFFF" stroke="#64748B" stroke-width="1"/><rect x="238" y="318" width="134" height="10" rx="2" fill="#FFFFFF" stroke="#64748B" stroke-width="1"/><text x="305.0" y="338" font-size="8.5" fill="#64748B" text-anchor="middle" font-weight="400">«component»</text><text x="305.0" y="354" font-size="10.5" fill="#1E293B" text-anchor="middle" font-weight="700">DeveloperCtl</text><text x="305.0" y="370" font-size="8.8" fill="#475569" text-anchor="middle" font-weight="400">/developer/*</text><rect x="400" y="300" width="150" height="45" rx="8" fill="#FFFFFF" stroke="#64748B" stroke-width="1.6"/><rect x="408" y="308" width="134" height="10" rx="2" fill="#FFFFFF" stroke="#64748B" stroke-width="1"/><rect x="408" y="318" width="134" height="10" rx="2" fill="#FFFFFF" stroke="#64748B" stroke-width="1"/><text x="475.0" y="338" font-size="8.5" fill="#64748B" text-anchor="middle" font-weight="400">«component»</text><text x="475.0" y="354" font-size="10.5" fill="#1E293B" text-anchor="middle" font-weight="700">MLClient</text><text x="475.0" y="370" font-size="8.8" fill="#475569" text-anchor="middle" font-weight="400">httpx async</text><rect x="700" y="100" width="240" height="130" rx="14" fill="#E6F6FE" stroke="#0EA5E9" stroke-width="1.6"/><text x="820" y="122" font-size="12" fill="#1E293B" text-anchor="middle" font-weight="700">ML Verifier Service</text><text x="820" y="140" font-size="9.5" fill="#475569" text-anchor="middle" font-weight="400">«external system» :9000</text><rect x="720" y="155" width="200" height="55" rx="8" fill="#FFFFFF" stroke="#64748B" stroke-width="1.6"/><rect x="728" y="163" width="184" height="10" rx="2" fill="#FFFFFF" stroke="#64748B" stroke-width="1"/><rect x="728" y="173" width="184" height="10" rx="2" fill="#FFFFFF" stroke="#64748B" stroke-width="1"/><text x="820.0" y="193" font-size="8.5" fill="#64748B" text-anchor="middle" font-weight="400">«component»</text><text x="820.0" y="209" font-size="10.5" fill="#1E293B" text-anchor="middle" font-weight="700">IsolationForest</text><text x="820.0" y="225" font-size="8.8" fill="#475569" text-anchor="middle" font-weight="400">+ SHAP TreeExplainer</text><circle cx="700" cy="165" r="6" fill="#FFFFFF" stroke="#0EA5E9" stroke-width="1.8"/><line x1="550" y1="322" x2="700" y2="165" stroke="#94A3B8" stroke-width="1.8" stroke-dasharray="5 4" marker-end="url(#arwl)"/><text x="618" y="260" font-size="9" fill="#0369A1" text-anchor="start" font-weight="400">«call» IScoreAPI</text><rect x="40" y="400" width="420" height="200" rx="14" fill="#EEF0FF" stroke="#6366F1" stroke-width="1.6"/><text x="60" y="422" font-size="12" fill="#1E293B" text-anchor="start" font-weight="700">Subsystem App  «system»  (FastAPI :8001/:8002)</text><rect x="60" y="440" width="150" height="70" rx="8" fill="#FFFFFF" stroke="#64748B" stroke-width="1.6"/><rect x="68" y="448" width="134" height="10" rx="2" fill="#FFFFFF" stroke="#64748B" stroke-width="1"/><rect x="68" y="458" width="134" height="10" rx="2" fill="#FFFFFF" stroke="#64748B" stroke-width="1"/><text x="135.0" y="478" font-size="8.5" fill="#64748B" text-anchor="middle" font-weight="400">«component»</text><text x="135.0" y="494" font-size="10.5" fill="#1E293B" text-anchor="middle" font-weight="700">SubsystemRouter</text><text x="135.0" y="510" font-size="8.8" fill="#475569" text-anchor="middle" font-weight="400">/rooms /books</text><rect x="230" y="440" width="150" height="70" rx="8" fill="#FFFFFF" stroke="#64748B" stroke-width="1.6"/><rect x="238" y="448" width="134" height="10" rx="2" fill="#FFFFFF" stroke="#64748B" stroke-width="1"/><rect x="238" y="458" width="134" height="10" rx="2" fill="#FFFFFF" stroke="#64748B" stroke-width="1"/><text x="305.0" y="478" font-size="8.5" fill="#64748B" text-anchor="middle" font-weight="400">«component»</text><text x="305.0" y="494" font-size="10.5" fill="#1E293B" text-anchor="middle" font-weight="700">HubClient</text><text x="305.0" y="510" font-size="8.8" fill="#475569" text-anchor="middle" font-weight="400">PKCE + JWKS verify</text><rect x="60" y="520" width="150" height="55" rx="8" fill="#FFFFFF" stroke="#64748B" stroke-width="1.6"/><rect x="68" y="528" width="134" height="10" rx="2" fill="#FFFFFF" stroke="#64748B" stroke-width="1"/><rect x="68" y="538" width="134" height="10" rx="2" fill="#FFFFFF" stroke="#64748B" stroke-width="1"/><text x="135.0" y="558" font-size="8.5" fill="#64748B" text-anchor="middle" font-weight="400">«component»</text><text x="135.0" y="574" font-size="10.5" fill="#1E293B" text-anchor="middle" font-weight="700">SessionService</text><text x="135.0" y="590" font-size="8.8" fill="#475569" text-anchor="middle" font-weight="400">itsdangerous cookie</text><rect x="230" y="520" width="150" height="55" rx="8" fill="#FFFFFF" stroke="#64748B" stroke-width="1.6"/><rect x="238" y="528" width="134" height="10" rx="2" fill="#FFFFFF" stroke="#64748B" stroke-width="1"/><rect x="238" y="538" width="134" height="10" rx="2" fill="#FFFFFF" stroke="#64748B" stroke-width="1"/><text x="305.0" y="558" font-size="8.5" fill="#64748B" text-anchor="middle" font-weight="400">«component»</text><text x="305.0" y="574" font-size="10.5" fill="#1E293B" text-anchor="middle" font-weight="700">AuditService</text><text x="305.0" y="590" font-size="8.8" fill="#475569" text-anchor="middle" font-weight="400">subsystem log</text><circle cx="305" cy="360" r="6" fill="#FFFFFF" stroke="#4F46E5" stroke-width="1.8"/><line x1="305" y1="440" x2="305" y2="360" stroke="#94A3B8" stroke-width="1.8" stroke-dasharray="5 4" marker-end="url(#arwl)"/><text x="318" y="405" font-size="9" fill="#4338CA" text-anchor="start" font-weight="400">«require»</text><text x="318" y="417" font-size="9" fill="#4338CA" text-anchor="start" font-weight="400">IOAuthAPI</text><text x="490.0" y="630" font-size="10.5" fill="#64748B" text-anchor="middle" font-weight="400">วงกลม = interface lollipop (provided)   ·   เส้นประ = dependency («call» / «require»)</text></svg>