<svg xmlns="http://www.w3.org/2000/svg" viewBox="0 0 1000 780" width="1000" height="780" font-family="'Sarabun','TH Sarabun New','Tahoma','Segoe UI','Noto Sans Thai',sans-serif"><rect x="0" y="0" width="1000" height="780" fill="#FFFFFF"/><defs><marker id="arw" markerWidth="10" markerHeight="10" refX="8" refY="3" orient="auto"><path d="M0,0 L8,3 L0,6 Z" fill="#475569"/></marker><marker id="arwl" markerWidth="10" markerHeight="10" refX="8" refY="3" orient="auto"><path d="M0,0 L8,3 L0,6 Z" fill="#94A3B8"/></marker><marker id="arwr" markerWidth="10" markerHeight="10" refX="8" refY="3" orient="auto"><path d="M0,0 L8,3 L0,6 Z" fill="#DC2626"/></marker><marker id="arwg" markerWidth="10" markerHeight="10" refX="8" refY="3" orient="auto"><path d="M0,0 L8,3 L0,6 Z" fill="#059669"/></marker></defs><text x="500.0" y="30" font-size="18" fill="#1E293B" text-anchor="middle" font-weight="700">รูปที่ 3.8  แผนภาพความสัมพันธ์ของฐานข้อมูล (Database ER Diagram)</text><rect x="30" y="55" width="940" height="300" rx="14" fill="#FBFCFE" stroke="#4F46E5" stroke-width="1.6"/><text x="50" y="78" font-size="13" fill="#4F46E5" text-anchor="start" font-weight="700">Hub Database  —  hub_db</text><rect x="60" y="95" width="170" height="114" rx="8" fill="#FFFFFF" stroke="#4F46E5" stroke-width="1.4"/><rect x="60" y="95" width="170" height="26" rx="8" fill="#4F46E5"/><rect x="60" y="111" width="170" height="10" fill="#4F46E5"/><text x="145.0" y="113" font-size="12" fill="#FFFFFF" text-anchor="middle" font-weight="700">users</text><text x="70" y="137" font-size="10" fill="#1E293B" text-anchor="start" font-weight="700">id (PK)</text><text x="70" y="153" font-size="10" fill="#1E293B" text-anchor="start" font-weight="400">email</text><text x="70" y="169" font-size="10" fill="#1E293B" text-anchor="start" font-weight="400">user_type</text><text x="70" y="185" font-size="10" fill="#1E293B" text-anchor="start" font-weight="400">is_hub_admin</text><text x="70" y="201" font-size="10" fill="#1E293B" text-anchor="start" font-weight="400">status</text><rect x="270" y="95" width="170" height="114" rx="8" fill="#FFFFFF" stroke="#6366F1" stroke-width="1.4"/><rect x="270" y="95" width="170" height="26" rx="8" fill="#6366F1"/><rect x="270" y="111" width="170" height="10" fill="#6366F1"/><text x="355.0" y="113" font-size="12" fill="#FFFFFF" text-anchor="middle" font-weight="700">subsystems</text><text x="280" y="137" font-size="10" fill="#1E293B" text-anchor="start" font-weight="700">id (PK)</text><text x="280" y="153" font-size="10" fill="#1E293B" text-anchor="start" font-weight="400">client_id</text><text x="280" y="169" font-size="10" fill="#1E293B" text-anchor="start" font-weight="400">client_secret_hash</text><text x="280" y="185" font-size="10" fill="#1E293B" text-anchor="start" font-weight="400">status</text><text x="280" y="201" font-size="10" fill="#1E293B" text-anchor="start" font-weight="400">owner_user_id (FK)</text><rect x="480" y="95" width="190" height="114" rx="8" fill="#FFFFFF" stroke="#64748B" stroke-width="1.4"/><rect x="480" y="95" width="190" height="26" rx="8" fill="#64748B"/><rect x="480" y="111" width="190" height="10" fill="#64748B"/><text x="575.0" y="113" font-size="12" fill="#FFFFFF" text-anchor="middle" font-weight="700">access_list</text><text x="490" y="137" font-size="10" fill="#1E293B" text-anchor="start" font-weight="700">id (PK)</text><text x="490" y="153" font-size="10" fill="#1E293B" text-anchor="start" font-weight="400">subsystem_id (FK)</text><text x="490" y="169" font-size="10" fill="#1E293B" text-anchor="start" font-weight="400">user_id (FK)</text><text x="490" y="185" font-size="10" fill="#1E293B" text-anchor="start" font-weight="400">entry_type</text><text x="490" y="201" font-size="10" fill="#1E293B" text-anchor="start" font-weight="400">revoked_at</text><rect x="710" y="95" width="190" height="114" rx="8" fill="#FFFFFF" stroke="#0EA5E9" stroke-width="1.4"/><rect x="710" y="95" width="190" height="26" rx="8" fill="#0EA5E9"/><rect x="710" y="111" width="190" height="10" fill="#0EA5E9"/><text x="805.0" y="113" font-size="12" fill="#FFFFFF" text-anchor="middle" font-weight="700">login_sessions</text><text x="720" y="137" font-size="10" fill="#1E293B" text-anchor="start" font-weight="700">id (PK)</text><text x="720" y="153" font-size="10" fill="#1E293B" text-anchor="start" font-weight="400">user_id (FK)</text><text x="720" y="169" font-size="10" fill="#1E293B" text-anchor="start" font-weight="400">risk_score</text><text x="720" y="185" font-size="10" fill="#1E293B" text-anchor="start" font-weight="400">decision</text><text x="720" y="201" font-size="10" fill="#1E293B" text-anchor="start" font-weight="400">jti</text><line x1="230" y1="152" x2="270" y2="152" stroke="#94A3B8" stroke-width="1.3" marker-end="url(#arwl)"/><line x1="440" y1="152" x2="480" y2="152" stroke="#94A3B8" stroke-width="1.3" marker-end="url(#arwl)"/><line x1="145" y1="209" x2="145" y2="260" stroke="#94A3B8" stroke-width="1.3" marker-end="url(#arwl)"/><path d="M145,260 C 145,300 480,300 575,209" stroke="#475569" stroke-width="1.8" fill="none" marker-end="url(#arwl)"/><path d="M145,209 C 145,320 710,320 805,209" stroke="#475569" stroke-width="1.8" fill="none" marker-end="url(#arwl)"/><text x="50" y="340" font-size="10" fill="#475569" text-anchor="start" font-weight="400">เส้น = ความสัมพันธ์ผ่าน foreign key (users เป็นศูนย์กลาง)</text><rect x="30" y="375" width="940" height="375" rx="14" fill="#FBFCFE" stroke="#10B981" stroke-width="1.6"/><text x="50" y="398" font-size="13" fill="#10B981" text-anchor="start" font-weight="700">Subsystem Databases — แยกจาก Hub (คนละ database, ไม่มี FK ข้าม)</text><text x="240" y="425" font-size="12" fill="#6366F1" text-anchor="middle" font-weight="700">dorm_db (ระบบหอพัก)</text><rect x="60" y="438" width="150" height="98" rx="8" fill="#FFFFFF" stroke="#6366F1" stroke-width="1.4"/><rect x="60" y="438" width="150" height="26" rx="8" fill="#6366F1"/><rect x="60" y="454" width="150" height="10" fill="#6366F1"/><text x="135.0" y="456" font-size="12" fill="#FFFFFF" text-anchor="middle" font-weight="700">rooms</text><text x="70" y="480" font-size="10" fill="#1E293B" text-anchor="start" font-weight="700">id (PK)</text><text x="70" y="496" font-size="10" fill="#1E293B" text-anchor="start" font-weight="400">room_number</text><text x="70" y="512" font-size="10" fill="#1E293B" text-anchor="start" font-weight="400">capacity</text><text x="70" y="528" font-size="10" fill="#1E293B" text-anchor="start" font-weight="400">status</text><rect x="240" y="438" width="170" height="114" rx="8" fill="#FFFFFF" stroke="#6366F1" stroke-width="1.4"/><rect x="240" y="438" width="170" height="26" rx="8" fill="#6366F1"/><rect x="240" y="454" width="170" height="10" fill="#6366F1"/><text x="325.0" y="456" font-size="12" fill="#FFFFFF" text-anchor="middle" font-weight="700">residents</text><text x="250" y="480" font-size="10" fill="#1E293B" text-anchor="start" font-weight="700">id (PK)</text><text x="250" y="496" font-size="10" fill="#1E293B" text-anchor="start" font-weight="400">hub_user_id (UUID)</text><text x="250" y="512" font-size="10" fill="#1E293B" text-anchor="start" font-weight="400">room_id (FK)</text><text x="250" y="528" font-size="10" fill="#1E293B" text-anchor="start" font-weight="400">user_type</text><text x="250" y="544" font-size="10" fill="#1E293B" text-anchor="start" font-weight="400">status</text><rect x="440" y="438" width="170" height="98" rx="8" fill="#FFFFFF" stroke="#6366F1" stroke-width="1.4"/><rect x="440" y="438" width="170" height="26" rx="8" fill="#6366F1"/><rect x="440" y="454" width="170" height="10" fill="#6366F1"/><text x="525.0" y="456" font-size="12" fill="#FFFFFF" text-anchor="middle" font-weight="700">reservations</text><text x="450" y="480" font-size="10" fill="#1E293B" text-anchor="start" font-weight="700">id (PK)</text><text x="450" y="496" font-size="10" fill="#1E293B" text-anchor="start" font-weight="400">hub_user_id</text><text x="450" y="512" font-size="10" fill="#1E293B" text-anchor="start" font-weight="400">room_id (FK)</text><text x="450" y="528" font-size="10" fill="#1E293B" text-anchor="start" font-weight="400">status</text><line x1="210" y1="460" x2="240" y2="460" stroke="#94A3B8" stroke-width="1.3" marker-end="url(#arwl)"/><line x1="210" y1="468" x2="440" y2="490" stroke="#94A3B8" stroke-width="1.3" marker-end="url(#arwl)"/><text x="690" y="425" font-size="12" fill="#10B981" text-anchor="middle" font-weight="700">library_db (ระบบห้องสมุด)</text><rect x="650" y="438" width="150" height="98" rx="8" fill="#FFFFFF" stroke="#10B981" stroke-width="1.4"/><rect x="650" y="438" width="150" height="26" rx="8" fill="#10B981"/><rect x="650" y="454" width="150" height="10" fill="#10B981"/><text x="725.0" y="456" font-size="12" fill="#FFFFFF" text-anchor="middle" font-weight="700">books</text><text x="660" y="480" font-size="10" fill="#1E293B" text-anchor="start" font-weight="700">id (PK)</text><text x="660" y="496" font-size="10" fill="#1E293B" text-anchor="start" font-weight="400">isbn</text><text x="660" y="512" font-size="10" fill="#1E293B" text-anchor="start" font-weight="400">copies_available</text><text x="660" y="528" font-size="10" fill="#1E293B" text-anchor="start" font-weight="400">status</text><rect x="820" y="438" width="150" height="98" rx="8" fill="#FFFFFF" stroke="#10B981" stroke-width="1.4"/><rect x="820" y="438" width="150" height="26" rx="8" fill="#10B981"/><rect x="820" y="454" width="150" height="10" fill="#10B981"/><text x="895.0" y="456" font-size="12" fill="#FFFFFF" text-anchor="middle" font-weight="700">members</text><text x="830" y="480" font-size="10" fill="#1E293B" text-anchor="start" font-weight="700">id (PK)</text><text x="830" y="496" font-size="10" fill="#1E293B" text-anchor="start" font-weight="400">hub_user_id (UUID)</text><text x="830" y="512" font-size="10" fill="#1E293B" text-anchor="start" font-weight="400">user_type</text><text x="830" y="528" font-size="10" fill="#1E293B" text-anchor="start" font-weight="400">status</text><rect x="650" y="590" width="170" height="114" rx="8" fill="#fff" stroke="#10B981" stroke-width="1.4"/><rect x="650" y="590" width="170" height="26" rx="8" fill="#10B981" stroke="#10B981" stroke-width="1.6"/><rect x="650" y="606" width="170" height="10" rx="10" fill="#10B981" stroke="#10B981" stroke-width="1.6"/><text x="735" y="608" font-size="12" fill="#FFFFFF" text-anchor="middle" font-weight="700">borrowings</text><text x="660" y="632" font-size="10" fill="#1E293B" text-anchor="start" font-weight="700">id (PK)</text><text x="660" y="648" font-size="10" fill="#1E293B" text-anchor="start" font-weight="400">hub_user_id</text><text x="660" y="664" font-size="10" fill="#1E293B" text-anchor="start" font-weight="400">book_id (FK)</text><text x="660" y="680" font-size="10" fill="#1E293B" text-anchor="start" font-weight="400">status / due_at</text><line x1="725" y1="460" x2="725" y2="590" stroke="#94A3B8" stroke-width="1.3" marker-end="url(#arwl)"/><path d="M145,514 C 145,555 260,555 305,592" stroke="#DC2626" stroke-width="1.8" fill="none" stroke-dasharray="5 4" marker-end="url(#arwl)"/><path d="M145,514 C 145,570 780,570 890,592" stroke="#DC2626" stroke-width="1.8" fill="none" stroke-dasharray="5 4" marker-end="url(#arwl)"/><rect x="340" y="720" width="320" height="38" rx="8" fill="#FFFFFF" stroke="#64748B" stroke-width="1.6"/><text x="500" y="743" font-size="10" fill="#DC2626" text-anchor="middle" font-weight="700">hub_user_id (UUID จาก JWT) — ไม่มี FK ข้ามฐานข้อมูล</text></svg>