<svg xmlns="http://www.w3.org/2000/svg" viewBox="0 0 980 640" width="980" height="640" font-family="'Sarabun','TH Sarabun New','Tahoma','Segoe UI','Noto Sans Thai',sans-serif"><rect x="0" y="0" width="980" height="640" fill="#FFFFFF"/><defs><marker id="arw" markerWidth="10" markerHeight="10" refX="8" refY="3" orient="auto"><path d="M0,0 L8,3 L0,6 Z" fill="#475569"/></marker><marker id="arwl" markerWidth="10" markerHeight="10" refX="8" refY="3" orient="auto"><path d="M0,0 L8,3 L0,6 Z" fill="#94A3B8"/></marker><marker id="arwr" markerWidth="10" markerHeight="10" refX="8" refY="3" orient="auto"><path d="M0,0 L8,3 L0,6 Z" fill="#DC2626"/></marker><marker id="arwg" markerWidth="10" markerHeight="10" refX="8" refY="3" orient="auto"><path d="M0,0 L8,3 L0,6 Z" fill="#059669"/></marker></defs><text x="490.0" y="30" font-size="18" fill="#1E293B" text-anchor="middle" font-weight="700">รูปที่ 3.16  แผนภาพคุณลักษณะ (Feature Engineering Diagram)</text><rect x="40" y="60" width="220" height="160" rx="10" fill="#EEF0FF" stroke="#6366F1" stroke-width="1.6"/><text x="150.0" y="84" font-size="12" fill="#1E293B" text-anchor="middle" font-weight="700">Temporal  (3)</text><text x="150.0" y="106" font-size="9" fill="#475569" text-anchor="middle" font-weight="400">hour_of_day</text><text x="150.0" y="122" font-size="9" fill="#475569" text-anchor="middle" font-weight="400">day_of_week</text><text x="150.0" y="138" font-size="9" fill="#475569" text-anchor="middle" font-weight="400">hours_from_typical_login_time</text><rect x="275" y="60" width="220" height="160" rx="10" fill="#EEF0FF" stroke="#4F46E5" stroke-width="1.6"/><text x="385.0" y="84" font-size="12" fill="#1E293B" text-anchor="middle" font-weight="700">Geographic  (3)</text><text x="385.0" y="106" font-size="9" fill="#475569" text-anchor="middle" font-weight="400">is_thailand</text><text x="385.0" y="122" font-size="9" fill="#475569" text-anchor="middle" font-weight="400">is_new_country</text><text x="385.0" y="138" font-size="9" fill="#475569" text-anchor="middle" font-weight="400">country_change_count_30d</text><rect x="510" y="60" width="220" height="160" rx="10" fill="#F1F5F9" stroke="#64748B" stroke-width="1.6"/><text x="620.0" y="84" font-size="12" fill="#1E293B" text-anchor="middle" font-weight="700">Device  (2)</text><text x="620.0" y="106" font-size="9" fill="#475569" text-anchor="middle" font-weight="400">is_new_device</text><text x="620.0" y="122" font-size="9" fill="#475569" text-anchor="middle" font-weight="400">is_new_user_agent_family</text><rect x="745" y="60" width="220" height="160" rx="10" fill="#F1F5F9" stroke="#64748B" stroke-width="1.6"/><text x="855.0" y="84" font-size="12" fill="#1E293B" text-anchor="middle" font-weight="700">Velocity  (2)</text><text x="855.0" y="106" font-size="9" fill="#475569" text-anchor="middle" font-weight="400">log_minutes_since_last_login</text><text x="855.0" y="122" font-size="9" fill="#475569" text-anchor="middle" font-weight="400">login_count_24h</text><rect x="40" y="235" width="220" height="160" rx="10" fill="#FDECEC" stroke="#DC2626" stroke-width="1.6"/><text x="150.0" y="259" font-size="12" fill="#1E293B" text-anchor="middle" font-weight="700">Brute-force  (1)</text><text x="150.0" y="281" font-size="9" fill="#475569" text-anchor="middle" font-weight="400">failed_logins_24h</text><rect x="275" y="235" width="220" height="160" rx="10" fill="#EEF0FF" stroke="#4F46E5" stroke-width="1.6"/><text x="385.0" y="259" font-size="12" fill="#1E293B" text-anchor="middle" font-weight="700">Passkey / Device Trust  (4)</text><text x="385.0" y="281" font-size="9" fill="#475569" text-anchor="middle" font-weight="400">passkey_count</text><text x="385.0" y="297" font-size="9" fill="#475569" text-anchor="middle" font-weight="400">passkey_age_days</text><text x="385.0" y="313" font-size="9" fill="#475569" text-anchor="middle" font-weight="400">new_passkey_recently_added</text><text x="385.0" y="329" font-size="9" fill="#475569" text-anchor="middle" font-weight="400">passkey_last_used_days</text><rect x="510" y="235" width="220" height="160" rx="10" fill="#E6F6FE" stroke="#0EA5E9" stroke-width="1.6"/><text x="620.0" y="259" font-size="12" fill="#1E293B" text-anchor="middle" font-weight="700">Session  (2)</text><text x="620.0" y="281" font-size="9" fill="#475569" text-anchor="middle" font-weight="400">concurrent_session_count</text><text x="620.0" y="297" font-size="9" fill="#475569" text-anchor="middle" font-weight="400">active_subsystem_count</text><rect x="745" y="235" width="220" height="160" rx="10" fill="#EEF0FF" stroke="#6366F1" stroke-width="1.6"/><text x="855.0" y="259" font-size="12" fill="#1E293B" text-anchor="middle" font-weight="700">Behavioral  (1)</text><text x="855.0" y="281" font-size="9" fill="#475569" text-anchor="middle" font-weight="400">weekday_usage_score</text><rect x="40" y="410" width="220" height="160" rx="10" fill="#FEF3E2" stroke="#D97706" stroke-width="1.6"/><text x="150.0" y="434" font-size="12" fill="#1E293B" text-anchor="middle" font-weight="700">OAuth scope  (1)</text><text x="150.0" y="456" font-size="9" fill="#475569" text-anchor="middle" font-weight="400">scope_sensitivity_score</text><rect x="275" y="410" width="220" height="160" rx="10" fill="#FEF3E2" stroke="#D97706" stroke-width="1.6"/><text x="385.0" y="434" font-size="12" fill="#1E293B" text-anchor="middle" font-weight="700">Privilege  (2)</text><text x="385.0" y="456" font-size="9" fill="#475569" text-anchor="middle" font-weight="400">ever_changed_permission</text><text x="385.0" y="472" font-size="9" fill="#475569" text-anchor="middle" font-weight="400">permission_change_age</text><rect x="510" y="410" width="220" height="160" rx="10" fill="#FDECEC" stroke="#DC2626" stroke-width="1.6"/><text x="620.0" y="434" font-size="12" fill="#1E293B" text-anchor="middle" font-weight="700">History  (1)</text><text x="620.0" y="456" font-size="9" fill="#475569" text-anchor="middle" font-weight="400">confirmed_incident_count</text><rect x="745" y="410" width="220" height="160" rx="10" fill="#FDECEC" stroke="#DC2626" stroke-width="1.6"/><text x="855.0" y="434" font-size="12" fill="#1E293B" text-anchor="middle" font-weight="700">GeoVelocity  (1)</text><text x="855.0" y="456" font-size="9" fill="#475569" text-anchor="middle" font-weight="400">impossible_travel_score</text><text x="490.0" y="615" font-size="11" fill="#1E293B" text-anchor="middle" font-weight="700">รวม 23 Features · 12 หมวด — ลำดับ index คือ contract ระหว่าง Hub (rule_engine.FEAT) และ ML Verifier (features.py)</text></svg>